<svg width="175" height="25" viewBox="0 0 175 25" fill="none" xmlns="http://www.w3.org/2000/svg">
    <path d="M8.888 13.856H7.8C7.8 15.3493 7.8 16.7787 7.8 18.144C7.82133 19.488 7.84267 20.8213 7.864 22.144H8.888C10.3813 22.144 11.5333 21.8027 12.344 21.12C13.176 20.4373 13.592 19.4133 13.592 18.048C13.592 16.5973 13.1973 15.5413 12.408 14.88C11.64 14.1973 10.4667 13.856 8.888 13.856ZM8.984 4.832H7.864C7.84267 6.02667 7.82133 7.24267 7.8 8.48C7.8 9.696 7.8 10.9227 7.8 12.16H8.696C10.0613 12.16 11.064 11.84 11.704 11.2C12.344 10.5387 12.664 9.57867 12.664 8.32C12.664 5.99467 11.4373 4.832 8.984 4.832ZM0.056 4.704V2.976H10.392C12.2053 2.976 13.656 3.2 14.744 3.648C15.832 4.07467 16.6213 4.66133 17.112 5.408C17.6027 6.15467 17.848 6.99733 17.848 7.936C17.848 8.66133 17.688 9.344 17.368 9.984C17.048 10.6027 16.4933 11.1573 15.704 11.648C14.9147 12.1173 13.816 12.48 12.408 12.736C14.7973 13.0133 16.504 13.6213 17.528 14.56C18.5733 15.4773 19.096 16.6613 19.096 18.112C19.096 18.7733 18.9467 19.456 18.648 20.16C18.3493 20.8427 17.8373 21.472 17.112 22.048C16.3867 22.624 15.3733 23.0933 14.072 23.456C12.792 23.8187 11.16 24 9.176 24H0.056V22.272L2.456 22.016C2.49867 20.6933 2.52 19.36 2.52 18.016C2.52 16.672 2.52 15.3173 2.52 13.952V13.024C2.52 11.7013 2.52 10.368 2.52 9.024C2.52 7.65867 2.49867 6.304 2.456 4.96L0.056 4.704ZM28.8945 9.696C28.2972 9.696 27.7425 10.0693 27.2305 10.816C26.7398 11.5413 26.4625 12.8853 26.3985 14.848H29.1185C29.8865 14.848 30.3985 14.6987 30.6545 14.4C30.9318 14.08 31.0705 13.5573 31.0705 12.832C31.0705 11.7653 30.8572 10.976 30.4305 10.464C30.0038 9.952 29.4918 9.696 28.8945 9.696ZM28.9585 24.48C27.4012 24.48 26.0252 24.16 24.8305 23.52C23.6358 22.8587 22.6972 21.92 22.0145 20.704C21.3318 19.4667 20.9905 17.9947 20.9905 16.288C20.9905 14.496 21.3852 12.992 22.1745 11.776C22.9852 10.5387 24.0198 9.61067 25.2785 8.992C26.5372 8.352 27.8492 8.032 29.2145 8.032C30.6225 8.032 31.8172 8.33067 32.7985 8.928C33.8012 9.52533 34.5585 10.336 35.0705 11.36C35.5825 12.3627 35.8385 13.5147 35.8385 14.816C35.8385 15.4347 35.7745 16 35.6465 16.512H26.3985C26.5052 18.1973 26.9638 19.4453 27.7745 20.256C28.6065 21.0453 29.5772 21.44 30.6865 21.44C31.5612 21.44 32.3078 21.28 32.9265 20.96C33.5452 20.6187 34.0892 20.2027 34.5585 19.712L35.6785 20.736C35.0172 21.9947 34.1212 22.9333 32.9905 23.552C31.8598 24.1707 30.5158 24.48 28.9585 24.48ZM43.726 24.48C42.2967 24.48 41.1767 24.1387 40.366 23.456C39.5553 22.752 39.15 21.6107 39.15 20.032C39.15 19.4773 39.15 18.9653 39.15 18.496C39.1713 18.0053 39.182 17.4507 39.182 16.832V10.72H37.102V8.832L39.47 8.512L41.07 4.032H44.334L44.27 8.544H47.63V10.72H44.27V19.68C44.27 20.4267 44.4193 20.9813 44.718 21.344C45.038 21.6853 45.4327 21.856 45.902 21.856C46.4567 21.856 47.0327 21.6213 47.63 21.152L48.43 21.92C48.0033 22.7307 47.406 23.36 46.638 23.808C45.8913 24.256 44.9207 24.48 43.726 24.48ZM55.0698 24.48C53.6404 24.48 52.5204 24.1387 51.7098 23.456C50.8991 22.752 50.4938 21.6107 50.4938 20.032C50.4938 19.4773 50.4938 18.9653 50.4938 18.496C50.5151 18.0053 50.5258 17.4507 50.5258 16.832V10.72H48.4458V8.832L50.8138 8.512L52.4138 4.032H55.6778L55.6138 8.544H58.9738V10.72H55.6138V19.68C55.6138 20.4267 55.7631 20.9813 56.0618 21.344C56.3818 21.6853 56.7764 21.856 57.2458 21.856C57.8004 21.856 58.3764 21.6213 58.9738 21.152L59.7738 21.92C59.3471 22.7307 58.7498 23.36 57.9818 23.808C57.2351 24.256 56.2644 24.48 55.0698 24.48ZM68.2695 9.696C67.6722 9.696 67.1175 10.0693 66.6055 10.816C66.1148 11.5413 65.8375 12.8853 65.7735 14.848H68.4935C69.2615 14.848 69.7735 14.6987 70.0295 14.4C70.3068 14.08 70.4455 13.5573 70.4455 12.832C70.4455 11.7653 70.2322 10.976 69.8055 10.464C69.3788 9.952 68.8668 9.696 68.2695 9.696ZM68.3335 24.48C66.7762 24.48 65.4002 24.16 64.2055 23.52C63.0108 22.8587 62.0722 21.92 61.3895 20.704C60.7068 19.4667 60.3655 17.9947 60.3655 16.288C60.3655 14.496 60.7602 12.992 61.5495 11.776C62.3602 10.5387 63.3948 9.61067 64.6535 8.992C65.9122 8.352 67.2242 8.032 68.5895 8.032C69.9975 8.032 71.1922 8.33067 72.1735 8.928C73.1762 9.52533 73.9335 10.336 74.4455 11.36C74.9575 12.3627 75.2135 13.5147 75.2135 14.816C75.2135 15.4347 75.1495 16 75.0215 16.512H65.7735C65.8802 18.1973 66.3388 19.4453 67.1495 20.256C67.9815 21.0453 68.9522 21.44 70.0615 21.44C70.9362 21.44 71.6828 21.28 72.3015 20.96C72.9202 20.6187 73.4642 20.2027 73.9335 19.712L75.0535 20.736C74.3922 21.9947 73.4962 22.9333 72.3655 23.552C71.2348 24.1707 69.8908 24.48 68.3335 24.48ZM76.989 24V22.496L78.749 22.144C78.7703 21.3547 78.781 20.512 78.781 19.616C78.781 18.72 78.781 17.9413 78.781 17.28V15.392C78.781 14.7947 78.7703 14.304 78.749 13.92C78.749 13.536 78.7383 13.184 78.717 12.864C78.717 12.5227 78.7063 12.1387 78.685 11.712L76.733 11.424V10.176L83.037 8.032L83.613 8.384L83.901 12.16C84.349 10.7947 84.9783 9.77067 85.789 9.088C86.5997 8.384 87.3997 8.032 88.189 8.032C88.893 8.032 89.501 8.23467 90.013 8.64C90.525 9.024 90.845 9.61067 90.973 10.4C90.9517 11.232 90.7277 11.8827 90.301 12.352C89.8743 12.8 89.341 13.024 88.701 13.024C87.805 13.024 86.9837 12.5227 86.237 11.52L86.045 11.264C85.5757 11.712 85.1383 12.2773 84.733 12.96C84.349 13.6427 84.0717 14.3573 83.901 15.104V17.28C83.901 17.9413 83.901 18.6987 83.901 19.552C83.901 20.4053 83.9117 21.2053 83.933 21.952L86.461 22.496V24H76.989Z" fill="#D42A20"/>
    <path d="M101.272 4.064H98.52C98.4987 5.472 98.4773 6.88 98.456 8.288C98.456 9.67467 98.456 11.1253 98.456 12.64H100.92C102.648 12.64 103.917 12.224 104.728 11.392C105.56 10.56 105.976 9.504 105.976 8.224C105.976 6.88 105.603 5.856 104.856 5.152C104.109 4.42667 102.915 4.064 101.272 4.064ZM92.408 3.904V2.592H101.368C103.821 2.592 105.731 3.08267 107.096 4.064C108.461 5.04533 109.144 6.42133 109.144 8.192C109.144 9.42933 108.696 10.56 107.8 11.584C106.904 12.608 105.56 13.28 103.768 13.6C104.707 13.792 105.475 14.208 106.072 14.848C106.691 15.4667 107.181 16.4053 107.544 17.664L108.92 22.4L111.384 22.688V24C111.064 24.0853 110.701 24.16 110.296 24.224C109.912 24.288 109.475 24.32 108.984 24.32C107.981 24.32 107.224 24.1707 106.712 23.872C106.221 23.5733 105.88 23.04 105.688 22.272L104.408 17.152C104.216 16.2773 103.939 15.6267 103.576 15.2C103.213 14.752 102.744 14.4533 102.168 14.304C101.613 14.1547 100.899 14.08 100.024 14.08H98.456C98.456 15.616 98.456 17.056 98.456 18.4C98.4773 19.744 98.4987 21.056 98.52 22.336L101.464 22.688V24H92.408V22.688L95.352 22.336C95.3947 20.992 95.416 19.6267 95.416 18.24C95.416 16.8533 95.416 15.4667 95.416 14.08V12.512C95.416 11.1253 95.416 9.74933 95.416 8.384C95.416 6.99733 95.3947 5.62133 95.352 4.256L92.408 3.904ZM120.139 9.856C119.542 9.856 118.934 10.0267 118.315 10.368C117.718 10.7093 117.195 11.2533 116.747 12C116.321 12.7467 116.043 13.7387 115.915 14.976H121.739C122.507 14.976 123.009 14.816 123.243 14.496C123.499 14.176 123.627 13.7813 123.627 13.312C123.627 12.6933 123.467 12.128 123.147 11.616C122.849 11.0827 122.433 10.656 121.899 10.336C121.387 10.016 120.801 9.856 120.139 9.856ZM120.107 24.416C117.953 24.416 116.225 23.7227 114.923 22.336C113.622 20.928 112.971 18.9973 112.971 16.544C112.971 14.9013 113.302 13.472 113.963 12.256C114.646 11.04 115.542 10.0907 116.651 9.408C117.782 8.72533 119.009 8.384 120.331 8.384C121.441 8.384 122.443 8.62933 123.339 9.12C124.235 9.61067 124.95 10.3147 125.483 11.232C126.017 12.128 126.283 13.2267 126.283 14.528C126.283 14.8907 126.262 15.232 126.219 15.552C126.177 15.8507 126.123 16.1067 126.059 16.32H115.851C115.894 18.2827 116.385 19.776 117.323 20.8C118.262 21.824 119.499 22.336 121.035 22.336C122.059 22.336 122.913 22.1333 123.595 21.728C124.278 21.3013 124.907 20.7573 125.483 20.096L126.251 20.704C125.654 21.8347 124.843 22.7413 123.819 23.424C122.795 24.0853 121.558 24.416 120.107 24.416ZM140.843 24.32C140.075 24.32 139.435 24.096 138.923 23.648C138.411 23.2 138.091 22.6027 137.963 21.856C137.089 22.7093 136.321 23.3493 135.659 23.776C134.998 24.2027 134.198 24.416 133.259 24.416C132.086 24.416 131.073 24.0853 130.219 23.424C129.387 22.7413 128.971 21.7387 128.971 20.416C128.971 19.7973 129.11 19.2213 129.387 18.688C129.686 18.1547 130.219 17.632 130.987 17.12C131.755 16.608 132.854 16.096 134.283 15.584C134.774 15.4133 135.339 15.232 135.979 15.04C136.619 14.848 137.259 14.6773 137.899 14.528V13.728C137.899 12.1707 137.665 11.136 137.195 10.624C136.726 10.112 135.958 9.856 134.891 9.856C134.657 9.856 134.39 9.86667 134.091 9.888C133.814 9.90933 133.505 9.96267 133.163 10.048L132.555 12.128C132.257 13.152 131.702 13.664 130.891 13.664C129.995 13.664 129.494 13.2267 129.387 12.352C129.686 11.136 130.39 10.176 131.499 9.472C132.63 8.74667 134.006 8.384 135.627 8.384C137.313 8.384 138.561 8.81067 139.371 9.664C140.182 10.496 140.587 11.9253 140.587 13.952V20.768C140.587 21.4507 140.694 21.9413 140.907 22.24C141.121 22.5173 141.398 22.656 141.739 22.656C142.017 22.656 142.251 22.592 142.443 22.464C142.635 22.336 142.817 22.1653 142.987 21.952L143.627 22.656C143.243 23.2747 142.817 23.712 142.347 23.968C141.899 24.2027 141.398 24.32 140.843 24.32ZM131.819 19.936C131.819 20.7893 132.065 21.3973 132.555 21.76C133.046 22.1227 133.654 22.304 134.379 22.304C134.699 22.304 134.998 22.2613 135.275 22.176C135.574 22.0907 135.926 21.9307 136.331 21.696C136.737 21.44 137.259 21.0773 137.899 20.608V15.712C137.345 15.8613 136.801 16.032 136.267 16.224C135.734 16.3947 135.297 16.544 134.955 16.672C134.038 17.0347 133.355 17.408 132.907 17.792C132.459 18.176 132.161 18.5493 132.011 18.912C131.883 19.2747 131.819 19.616 131.819 19.936ZM148.133 16.48C148.133 18.5707 148.549 20.1173 149.381 21.12C150.234 22.1013 151.301 22.592 152.581 22.592C153.285 22.592 153.903 22.4533 154.437 22.176C154.991 21.8773 155.567 21.3973 156.165 20.736V11.872C155.439 11.232 154.789 10.7947 154.213 10.56C153.637 10.3253 153.082 10.208 152.549 10.208C151.759 10.208 151.023 10.432 150.341 10.88C149.679 11.3067 149.146 11.9893 148.741 12.928C148.335 13.8453 148.133 15.0293 148.133 16.48ZM156.485 24.32L156.261 22.112C155.706 22.8373 155.066 23.4027 154.341 23.808C153.637 24.2133 152.783 24.416 151.781 24.416C150.479 24.416 149.338 24.0853 148.357 23.424C147.375 22.7627 146.607 21.8453 146.053 20.672C145.519 19.4773 145.253 18.1013 145.253 16.544C145.253 14.9013 145.551 13.472 146.149 12.256C146.746 11.04 147.557 10.0907 148.581 9.408C149.605 8.72533 150.767 8.384 152.069 8.384C152.815 8.384 153.53 8.53333 154.213 8.832C154.917 9.13067 155.599 9.67467 156.261 10.464V3.232L153.541 2.912V1.792L158.533 0.351999L158.981 0.608L158.853 5.152V22.464L161.444 22.848V24L156.485 24.32ZM168.369 24.416C167.473 24.416 166.651 24.3093 165.905 24.096C165.158 23.904 164.39 23.6053 163.601 23.2L163.473 19.68H165.233L165.841 22.464C166.587 22.8053 167.451 22.976 168.433 22.976C169.649 22.976 170.545 22.752 171.121 22.304C171.718 21.856 172.017 21.2693 172.017 20.544C172.017 19.8613 171.771 19.3173 171.281 18.912C170.79 18.4853 170.043 18.1013 169.041 17.76L167.569 17.216C166.395 16.7893 165.457 16.2347 164.753 15.552C164.049 14.8693 163.697 13.984 163.697 12.896C163.697 12.1067 163.91 11.3707 164.337 10.688C164.763 10.0053 165.393 9.45067 166.225 9.024C167.057 8.59733 168.07 8.384 169.265 8.384C170.139 8.384 170.929 8.50133 171.633 8.736C172.358 8.94933 173.062 9.26933 173.745 9.696L173.617 12.96H171.953L171.441 10.4C170.715 10.0373 169.979 9.856 169.233 9.856C168.251 9.856 167.505 10.0587 166.993 10.464C166.502 10.848 166.257 11.3707 166.257 12.032C166.257 12.736 166.47 13.2693 166.897 13.632C167.345 13.9947 168.113 14.3787 169.201 14.784L170.193 15.136C171.793 15.7333 172.923 16.416 173.585 17.184C174.267 17.952 174.609 18.8373 174.609 19.84C174.609 20.6507 174.374 21.408 173.905 22.112C173.435 22.7947 172.742 23.3493 171.825 23.776C170.907 24.2027 169.755 24.416 168.369 24.416Z" fill="white"/>
</svg>
